<svg width="104" height="153" viewBox="0 0 104 153" fill="none" xmlns="http://www.w3.org/2000/svg">
<path d="M37.0906 123.181L67.6474 123.32L67.5124 153L36.9556 152.861L37.0906 123.181ZM0 49.0672C0.909071 29.5583 7.77376 15.7593 20.5941 7.67022C28.6842 2.50364 38.6082 -0.05282 50.366 0.000826976C65.8153 0.0713166 78.616 3.82694 88.7679 11.2677C98.9882 18.7088 104.065 29.6866 103.999 44.2013C103.959 53.1018 101.703 60.5887 97.232 66.6618C94.6175 70.3471 89.6058 75.0485 82.1968 80.7659L74.8908 86.3811C70.9119 89.4439 68.2637 93.0264 66.9462 97.1284C66.114 99.7263 65.6513 103.764 65.558 109.241L37.8724 109.114C38.3352 97.5456 39.4652 89.5743 41.2625 85.2007C43.0601 80.7585 47.6634 75.6787 55.0724 69.9613L62.5844 64.1416C65.0537 62.3043 67.0454 60.2936 68.5592 58.1096C71.3107 54.3565 72.6968 50.2205 72.7173 45.7018C72.741 40.4984 71.2244 35.7673 68.1675 31.5084C65.1793 27.1813 59.652 24.9994 51.5855 24.9626C43.6558 24.9264 38.0042 27.5366 34.6306 32.7932C31.3253 38.05 29.6598 43.5198 29.6339 49.2024L0 49.0672Z" fill="#00D5E2"/>
</svg>
