<svg width="54" height="78" viewBox="0 0 54 78" fill="none" xmlns="http://www.w3.org/2000/svg">
<path d="M19.3744 62.6634L34.7383 62.7334L34.6704 77.6333L19.3065 77.5633L19.3744 62.6634ZM0.725342 25.4569C1.18242 15.6631 4.63397 8.73567 11.08 4.67479C15.1477 2.08107 20.1374 0.797672 26.0493 0.824603C33.8171 0.859991 40.2533 2.74539 45.3576 6.4808C50.4964 10.2164 53.0492 15.7275 53.016 23.0141C52.9956 27.4824 51.8614 31.2409 49.6134 34.2898C48.2988 36.1399 45.7789 38.5 42.0537 41.3703L38.3802 44.1892C36.3797 45.7269 35.0482 47.5253 34.3857 49.5846C33.9673 50.8888 33.7347 52.9157 33.6878 55.6652L19.7675 55.6018C20.0002 49.794 20.5683 45.7923 21.472 43.5966C22.3758 41.3666 24.6904 38.8164 28.4156 35.9462L32.1926 33.0246C33.4342 32.1022 34.4356 31.0928 35.1968 29.9964C36.5802 28.1122 37.2771 26.0359 37.2874 23.7674C37.2993 21.1552 36.5368 18.7801 34.9998 16.642C33.4973 14.4698 30.7182 13.3744 26.6624 13.3559C22.6754 13.3378 19.8337 14.6481 18.1375 17.287C16.4756 19.9261 15.6382 22.672 15.6252 25.5248L0.725342 25.4569Z" fill="#2FC18C"/>
</svg>
