<svg width="46" height="52" viewBox="0 0 46 52" fill="none" xmlns="http://www.w3.org/2000/svg">
<path d="M31.7619 27.254L40.6669 42.7894C41.1719 43.6637 41.9508 44.0292 42.7783 44.0292C44.0165 44.0292 45.3034 43.1093 45.3034 41.5466L45.3491 10.4788C45.3491 8.91607 44.1108 7.95044 42.8695 7.95044C42.042 7.95044 41.2176 8.36472 40.7125 9.23897L31.7619 24.7287C31.5338 25.0973 31.4395 25.5542 31.4395 25.9685C31.4395 26.4285 31.5307 26.8428 31.7619 27.254Z" fill="#2FC18C"/>
<path d="M22.5376 32.5391L31.4882 48.0289C31.7194 48.4431 31.8563 48.9031 31.8563 49.3143C31.8563 50.6486 30.6637 51.797 29.3311 51.797C28.9174 51.797 28.5036 51.7056 28.0929 51.4741L1.24116 35.8929C0.368004 35.3873 0.00292969 34.5587 0.00292969 33.7789C0.00292969 32.4934 0.96735 31.2049 2.52807 31.2049L20.3836 31.2963C21.3024 31.2963 22.1269 31.7562 22.5406 32.5361" fill="#2FC18C"/>
<path d="M20.335 20.4976H2.47951C0.918786 20.4976 0 19.2579 0 18.015C0 17.1865 0.368126 16.3609 1.23824 15.8553L28.1356 0.368586C28.5494 0.140124 29.0088 0 29.4225 0C30.7551 0 31.902 1.1484 31.902 2.52832C31.902 2.94259 31.7651 3.35687 31.5339 3.76811L22.4921 19.2579C22.0327 20.0407 21.2538 20.4976 20.335 20.4976Z" fill="#2FC18C"/>
</svg>
