<svg width="44" height="55" viewBox="0 0 44 55" fill="none" xmlns="http://www.w3.org/2000/svg">
<path d="M6.09638 40.046L15.7178 45.6594L10.282 54.9762L0.660533 49.3627L6.09638 40.046ZM7.85432 9.95919C11.6864 3.9847 16.361 0.89286 21.8783 0.683681C25.3712 0.532148 28.9687 1.53637 32.6709 3.69636C37.5355 6.53448 40.8942 10.0497 42.7471 14.242C44.6215 18.4468 44.2295 22.8274 41.5711 27.3836C39.941 30.1776 37.8684 32.1228 35.3533 33.2193C33.8582 33.9027 31.4217 34.4689 28.0438 34.9179L24.7169 35.3536C22.9042 35.5923 21.4172 36.2372 20.2559 37.2881C19.5211 37.9541 18.6413 39.1405 17.6167 40.8473L8.89924 35.7613C11.1476 32.2045 12.9528 29.9016 14.315 28.8526C15.6897 27.7822 18.066 27.0224 21.4439 26.5734L24.873 26.1109C25.9864 25.9827 26.9806 25.7129 27.8554 25.3014C29.406 24.6217 30.5951 23.5726 31.4227 22.1541C32.3757 20.5207 32.7567 18.7552 32.5655 16.8576C32.4084 14.9511 31.0599 13.2569 28.52 11.775C26.0232 10.3183 23.7647 10.1097 21.7444 11.1492C19.7457 12.2013 18.226 13.6193 17.1852 15.4031L7.85432 9.95919Z" fill="#EA5D5D"/>
</svg>
