<svg width="39" height="57" viewBox="0 0 39 57" fill="none" xmlns="http://www.w3.org/2000/svg">
<path d="M21.3708 45.8652L32.1435 43.0311L34.8877 53.4627L24.115 56.2968L21.3708 45.8652ZM1.33924 23.3475C-0.175712 16.4133 0.943508 10.9215 4.6969 6.87231C7.05959 4.29532 10.3135 2.46156 14.4587 1.37104C19.9053 -0.0618502 24.7659 0.0488026 29.0405 1.703C33.3392 3.35085 36.1595 6.72555 37.5016 11.8271C38.3245 14.9554 38.2344 17.7964 37.2313 20.3502C36.6574 21.8906 35.3349 24.0138 33.2638 26.7199L31.2194 29.3804C30.1065 30.831 29.511 32.3385 29.4329 33.9027C29.3843 34.8933 29.6011 36.3542 30.0834 38.2857L20.3229 40.8535C19.3977 36.7486 19.0458 33.8438 19.2673 32.1388C19.4824 30.4098 20.6255 28.1923 22.6965 25.4862L24.7942 22.7345C25.4909 21.8565 26.0031 20.9628 26.3307 20.0532C26.9465 18.4761 27.0456 16.8935 26.6278 15.3053C26.1466 13.4764 25.1676 11.9587 23.6906 10.752C22.2314 9.51496 20.0799 9.27051 17.2361 10.0187C14.4405 10.7541 12.696 12.2036 12.0025 14.3672C11.3331 16.5245 11.2612 18.6017 11.7866 20.599L1.33924 23.3475Z" fill="#F9BA18"/>
</svg>
